{
	"asset":{
		"generator":"Khronos glTF Blender I/O v4.2.57",
		"version":"2.0"
	},
	"scene":0,
	"scenes":[
		{
			"name":"Scene",
			"nodes":[
				15
			]
		}
	],
	"nodes":[
		{
			"name":"\u30dc\u30fc\u30f3.003",
			"rotation":[
				-0.0366315133869648,
				0.015886535868048668,
				0.5638319849967957,
				0.8249238133430481
			],
			"scale":[
				0.9999999403953552,
				1,
				0.9999999403953552
			],
			"translation":[
				-3.862802577803137e-10,
				1.172013759613037,
				-2.5313283913419582e-08
			]
		},
		{
			"name":"\u30dc\u30fc\u30f3.004",
			"rotation":[
				-0.03698800504207611,
				-0.015607000328600407,
				-0.5588558912277222,
				0.8282924890518188
			],
			"scale":[
				1,
				0.9999999403953552,
				1
			],
			"translation":[
				4.6133694087124866e-10,
				1.1720139980316162,
				-2.5721419660840183e-08
			]
		},
		{
			"children":[
				0,
				1
			],
			"name":"\u30dc\u30fc\u30f3.002",
			"rotation":[
				0.07188659906387329,
				1.274866878731018e-08,
				6.044066136468018e-09,
				0.9974128603935242
			],
			"scale":[
				1,
				0.9999998807907104,
				0.9999999403953552
			],
			"translation":[
				-5.086195679036842e-16,
				0.6670904159545898,
				1.1175870895385742e-08
			]
		},
		{
			"name":"\u30dc\u30fc\u30f3.006",
			"rotation":[
				0.005442287307232618,
				-0.0004086900153197348,
				-0.15298686921596527,
				0.9882131814956665
			],
			"scale":[
				0.9999999403953552,
				0.9999999403953552,
				1
			],
			"translation":[
				-9.918585419654846e-08,
				0.5320882797241211,
				-6.05359673500061e-09
			]
		},
		{
			"children":[
				3
			],
			"name":"\u30dc\u30fc\u30f3.005",
			"rotation":[
				-0.006439340766519308,
				-3.054565240745433e-05,
				0.8025644421577454,
				0.5965307354927063
			],
			"scale":[
				0.9999998807907104,
				0.9999999403953552,
				1
			],
			"translation":[
				-6.9565788685110874e-09,
				0.667090654373169,
				1.862645149230957e-08
			]
		},
		{
			"name":"\u30dc\u30fc\u30f3.009",
			"rotation":[
				0.0050886403769254684,
				0.0003698428045026958,
				0.14522811770439148,
				0.9893850684165955
			],
			"scale":[
				0.9999998807907104,
				1,
				0.9999999403953552
			],
			"translation":[
				1.1734664440155029e-07,
				0.5615453124046326,
				1.30385160446167e-08
			]
		},
		{
			"children":[
				5
			],
			"name":"\u30dc\u30fc\u30f3.008",
			"rotation":[
				-0.006040909327566624,
				2.6604244339978322e-05,
				-0.797842800617218,
				0.6028352975845337
			],
			"scale":[
				1.0000001192092896,
				1,
				0.9999999403953552
			],
			"translation":[
				5.02646413380603e-09,
				0.667090654373169,
				1.862645149230957e-08
			]
		},
		{
			"children":[
				2,
				4,
				6
			],
			"name":"\u30dc\u30fc\u30f3.001",
			"rotation":[
				0.08343194425106049,
				-8.923940697513899e-08,
				1.341985012004443e-08,
				0.9965134859085083
			],
			"translation":[
				-6.333135750579474e-15,
				0.6178390979766846,
				5.587935447692871e-09
			]
		},
		{
			"name":"\u30dc\u30fc\u30f3.013",
			"rotation":[
				-0.49717485904693604,
				0.007654126733541489,
				0.023741383105516434,
				0.8672917485237122
			],
			"scale":[
				0.9999999403953552,
				0.9999999403953552,
				1
			],
			"translation":[
				-1.1152796020041933e-08,
				0.34884610772132874,
				-1.033869310163027e-07
			]
		},
		{
			"children":[
				8
			],
			"name":"\u30dc\u30fc\u30f3.011",
			"rotation":[
				-0.5869635343551636,
				-0.3138808608055115,
				-0.6229629516601562,
				0.4109376072883606
			],
			"scale":[
				1.0000001192092896,
				1.0000001192092896,
				1
			],
			"translation":[
				2.1051387022463786e-10,
				-6.604251723274501e-08,
				2.347701411054004e-08
			]
		},
		{
			"name":"\u30dc\u30fc\u30f3.014",
			"rotation":[
				-0.49955132603645325,
				-0.008282889612019062,
				-0.02426467090845108,
				0.8659048080444336
			],
			"scale":[
				0.9999998807907104,
				0.9999999403953552,
				0.9999999403953552
			],
			"translation":[
				1.0469937805623886e-08,
				0.31734004616737366,
				-1.4019364869000128e-07
			]
		},
		{
			"children":[
				10
			],
			"name":"\u30dc\u30fc\u30f3.012",
			"rotation":[
				-0.5813800096511841,
				0.3233720362186432,
				0.6183756589889526,
				0.41837701201438904
			],
			"scale":[
				1.0000001192092896,
				1,
				0.9999999403953552
			],
			"translation":[
				-2.986020675166401e-08,
				-7.208458185914424e-08,
				1.4440326268072567e-08
			]
		},
		{
			"children":[
				7,
				9,
				11
			],
			"name":"\u30dc\u30fc\u30f3",
			"rotation":[
				-0.09678281098604202,
				1.2461195808555203e-07,
				-1.2117168601832873e-08,
				0.9953055381774902
			],
			"scale":[
				1,
				0.9999999403953552,
				0.9999999403953552
			],
			"translation":[
				0,
				0.07196235656738281,
				0
			]
		},
		{
			"mesh":0,
			"name":"\u7403.001",
			"skin":0
		},
		{
			"name":"\u7403.017",
			"translation":[
				0,
				1,
				0
			]
		},
		{
			"children":[
				13,
				14,
				12
			],
			"name":"\u30a2\u30fc\u30de\u30c1\u30e5\u30a2"
		}
	],
	"animations":[
		{
			"channels":[
				{
					"sampler":0,
					"target":{
						"node":12,
						"path":"translation"
					}
				},
				{
					"sampler":1,
					"target":{
						"node":12,
						"path":"rotation"
					}
				},
				{
					"sampler":2,
					"target":{
						"node":12,
						"path":"scale"
					}
				},
				{
					"sampler":3,
					"target":{
						"node":7,
						"path":"translation"
					}
				},
				{
					"sampler":4,
					"target":{
						"node":7,
						"path":"rotation"
					}
				},
				{
					"sampler":5,
					"target":{
						"node":7,
						"path":"scale"
					}
				},
				{
					"sampler":6,
					"target":{
						"node":2,
						"path":"translation"
					}
				},
				{
					"sampler":7,
					"target":{
						"node":2,
						"path":"rotation"
					}
				},
				{
					"sampler":8,
					"target":{
						"node":2,
						"path":"scale"
					}
				},
				{
					"sampler":9,
					"target":{
						"node":0,
						"path":"translation"
					}
				},
				{
					"sampler":10,
					"target":{
						"node":0,
						"path":"rotation"
					}
				},
				{
					"sampler":11,
					"target":{
						"node":0,
						"path":"scale"
					}
				},
				{
					"sampler":12,
					"target":{
						"node":1,
						"path":"translation"
					}
				},
				{
					"sampler":13,
					"target":{
						"node":1,
						"path":"rotation"
					}
				},
				{
					"sampler":14,
					"target":{
						"node":1,
						"path":"scale"
					}
				},
				{
					"sampler":15,
					"target":{
						"node":4,
						"path":"translation"
					}
				},
				{
					"sampler":16,
					"target":{
						"node":4,
						"path":"rotation"
					}
				},
				{
					"sampler":17,
					"target":{
						"node":4,
						"path":"scale"
					}
				},
				{
					"sampler":18,
					"target":{
						"node":3,
						"path":"translation"
					}
				},
				{
					"sampler":19,
					"target":{
						"node":3,
						"path":"rotation"
					}
				},
				{
					"sampler":20,
					"target":{
						"node":3,
						"path":"scale"
					}
				},
				{
					"sampler":21,
					"target":{
						"node":6,
						"path":"translation"
					}
				},
				{
					"sampler":22,
					"target":{
						"node":6,
						"path":"rotation"
					}
				},
				{
					"sampler":23,
					"target":{
						"node":6,
						"path":"scale"
					}
				},
				{
					"sampler":24,
					"target":{
						"node":5,
						"path":"translation"
					}
				},
				{
					"sampler":25,
					"target":{
						"node":5,
						"path":"rotation"
					}
				},
				{
					"sampler":26,
					"target":{
						"node":5,
						"path":"scale"
					}
				},
				{
					"sampler":27,
					"target":{
						"node":9,
						"path":"translation"
					}
				},
				{
					"sampler":28,
					"target":{
						"node":9,
						"path":"rotation"
					}
				},
				{
					"sampler":29,
					"target":{
						"node":9,
						"path":"scale"
					}
				},
				{
					"sampler":30,
					"target":{
						"node":8,
						"path":"translation"
					}
				},
				{
					"sampler":31,
					"target":{
						"node":8,
						"path":"rotation"
					}
				},
				{
					"sampler":32,
					"target":{
						"node":8,
						"path":"scale"
					}
				},
				{
					"sampler":33,
					"target":{
						"node":11,
						"path":"translation"
					}
				},
				{
					"sampler":34,
					"target":{
						"node":11,
						"path":"rotation"
					}
				},
				{
					"sampler":35,
					"target":{
						"node":11,
						"path":"scale"
					}
				},
				{
					"sampler":36,
					"target":{
						"node":10,
						"path":"translation"
					}
				},
				{
					"sampler":37,
					"target":{
						"node":10,
						"path":"rotation"
					}
				},
				{
					"sampler":38,
					"target":{
						"node":10,
						"path":"scale"
					}
				},
				{
					"sampler":39,
					"target":{
						"node":15,
						"path":"translation"
					}
				},
				{
					"sampler":40,
					"target":{
						"node":15,
						"path":"rotation"
					}
				},
				{
					"sampler":41,
					"target":{
						"node":15,
						"path":"scale"
					}
				}
			],
			"name":"\u30a2\u30fc\u30de\u30c1\u30e5\u30a2\u30a2\u30af\u30b7\u30e7\u30f3",
			"samplers":[
				{
					"input":9,
					"interpolation":"LINEAR",
					"output":10
				},
				{
					"input":9,
					"interpolation":"LINEAR",
					"output":11
				},
				{
					"input":12,
					"interpolation":"LINEAR",
					"output":13
				},
				{
					"input":12,
					"interpolation":"LINEAR",
					"output":14
				},
				{
					"input":9,
					"interpolation":"LINEAR",
					"output":15
				},
				{
					"input":12,
					"interpolation":"LINEAR",
					"output":16
				},
				{
					"input":12,
					"interpolation":"LINEAR",
					"output":17
				},
				{
					"input":9,
					"interpolation":"LINEAR",
					"output":18
				},
				{
					"input":12,
					"interpolation":"LINEAR",
					"output":19
				},
				{
					"input":12,
					"interpolation":"LINEAR",
					"output":20
				},
				{
					"input":9,
					"interpolation":"LINEAR",
					"output":21
				},
				{
					"input":12,
					"interpolation":"LINEAR",
					"output":22
				},
				{
					"input":12,
					"interpolation":"LINEAR",
					"output":23
				},
				{
					"input":9,
					"interpolation":"LINEAR",
					"output":24
				},
				{
					"input":12,
					"interpolation":"LINEAR",
					"output":25
				},
				{
					"input":12,
					"interpolation":"LINEAR",
					"output":26
				},
				{
					"input":9,
					"interpolation":"LINEAR",
					"output":27
				},
				{
					"input":12,
					"interpolation":"LINEAR",
					"output":28
				},
				{
					"input":12,
					"interpolation":"LINEAR",
					"output":29
				},
				{
					"input":9,
					"interpolation":"LINEAR",
					"output":30
				},
				{
					"input":12,
					"interpolation":"LINEAR",
					"output":31
				},
				{
					"input":12,
					"interpolation":"LINEAR",
					"output":32
				},
				{
					"input":9,
					"interpolation":"LINEAR",
					"output":33
				},
				{
					"input":12,
					"interpolation":"LINEAR",
					"output":34
				},
				{
					"input":12,
					"interpolation":"LINEAR",
					"output":35
				},
				{
					"input":9,
					"interpolation":"LINEAR",
					"output":36
				},
				{
					"input":12,
					"interpolation":"LINEAR",
					"output":37
				},
				{
					"input":12,
					"interpolation":"LINEAR",
					"output":38
				},
				{
					"input":9,
					"interpolation":"LINEAR",
					"output":39
				},
				{
					"input":12,
					"interpolation":"LINEAR",
					"output":40
				},
				{
					"input":12,
					"interpolation":"LINEAR",
					"output":41
				},
				{
					"input":9,
					"interpolation":"LINEAR",
					"output":42
				},
				{
					"input":12,
					"interpolation":"LINEAR",
					"output":43
				},
				{
					"input":12,
					"interpolation":"LINEAR",
					"output":44
				},
				{
					"input":9,
					"interpolation":"LINEAR",
					"output":45
				},
				{
					"input":12,
					"interpolation":"LINEAR",
					"output":46
				},
				{
					"input":12,
					"interpolation":"LINEAR",
					"output":47
				},
				{
					"input":9,
					"interpolation":"LINEAR",
					"output":48
				},
				{
					"input":12,
					"interpolation":"LINEAR",
					"output":49
				},
				{
					"input":12,
					"interpolation":"STEP",
					"output":50
				},
				{
					"input":12,
					"interpolation":"STEP",
					"output":51
				},
				{
					"input":12,
					"interpolation":"STEP",
					"output":52
				}
			]
		},
		{
			"channels":[
				{
					"sampler":0,
					"target":{
						"node":14,
						"path":"translation"
					}
				},
				{
					"sampler":1,
					"target":{
						"node":14,
						"path":"rotation"
					}
				},
				{
					"sampler":2,
					"target":{
						"node":14,
						"path":"scale"
					}
				}
			],
			"name":"\u7403.017\u30a2\u30af\u30b7\u30e7\u30f3",
			"samplers":[
				{
					"input":53,
					"interpolation":"LINEAR",
					"output":54
				},
				{
					"input":53,
					"interpolation":"LINEAR",
					"output":55
				},
				{
					"input":53,
					"interpolation":"LINEAR",
					"output":56
				}
			]
		}
	],
	"materials":[
		{
			"doubleSided":true,
			"name":"\u30de\u30c6\u30ea\u30a2\u30eb",
			"pbrMetallicRoughness":{
				"metallicFactor":0,
				"roughnessFactor":0.5
			}
		}
	],
	"meshes":[
		{
			"name":"\u7403.017",
			"primitives":[
				{
					"attributes":{
						"POSITION":0,
						"NORMAL":1,
						"TEXCOORD_0":2,
						"COLOR_0":3,
						"COLOR_1":4,
						"JOINTS_0":5,
						"WEIGHTS_0":6
					},
					"indices":7,
					"material":0
				}
			]
		}
	],
	"skins":[
		{
			"inverseBindMatrices":8,
			"joints":[
				12,
				7,
				2,
				0,
				1,
				4,
				3,
				6,
				5,
				9,
				8,
				11,
				10
			],
			"name":"\u30a2\u30fc\u30de\u30c1\u30e5\u30a2"
		}
	],
	"accessors":[
		{
			"bufferView":0,
			"componentType":5126,
			"count":3708,
			"max":[
				1.8642653226852417,
				3.152418851852417,
				1.1097004413604736
			],
			"min":[
				-1.8642655611038208,
				-0.8837158679962158,
				-0.8981234431266785
			],
			"type":"VEC3"
		},
		{
			"bufferView":1,
			"componentType":5126,
			"count":3708,
			"type":"VEC3"
		},
		{
			"bufferView":2,
			"componentType":5126,
			"count":3708,
			"type":"VEC2"
		},
		{
			"bufferView":3,
			"componentType":5126,
			"count":3708,
			"type":"VEC3"
		},
		{
			"bufferView":4,
			"componentType":5126,
			"count":3708,
			"type":"VEC3"
		},
		{
			"bufferView":5,
			"componentType":5121,
			"count":3708,
			"type":"VEC4"
		},
		{
			"bufferView":6,
			"componentType":5126,
			"count":3708,
			"type":"VEC4"
		},
		{
			"bufferView":7,
			"componentType":5123,
			"count":17847,
			"type":"SCALAR"
		},
		{
			"bufferView":8,
			"componentType":5126,
			"count":13,
			"type":"MAT4"
		},
		{
			"bufferView":9,
			"componentType":5126,
			"count":50,
			"max":[
				2.0833333333333335
			],
			"min":[
				0.041666666666666664
			],
			"type":"SCALAR"
		},
		{
			"bufferView":10,
			"componentType":5126,
			"count":50,
			"type":"VEC3"
		},
		{
			"bufferView":11,
			"componentType":5126,
			"count":50,
			"type":"VEC4"
		},
		{
			"bufferView":12,
			"componentType":5126,
			"count":2,
			"max":[
				2.0833333333333335
			],
			"min":[
				0.041666666666666664
			],
			"type":"SCALAR"
		},
		{
			"bufferView":13,
			"componentType":5126,
			"count":2,
			"type":"VEC3"
		},
		{
			"bufferView":14,
			"componentType":5126,
			"count":2,
			"type":"VEC3"
		},
		{
			"bufferView":15,
			"componentType":5126,
			"count":50,
			"type":"VEC4"
		},
		{
			"bufferView":16,
			"componentType":5126,
			"count":2,
			"type":"VEC3"
		},
		{
			"bufferView":17,
			"componentType":5126,
			"count":2,
			"type":"VEC3"
		},
		{
			"bufferView":18,
			"componentType":5126,
			"count":50,
			"type":"VEC4"
		},
		{
			"bufferView":19,
			"componentType":5126,
			"count":2,
			"type":"VEC3"
		},
		{
			"bufferView":20,
			"componentType":5126,
			"count":2,
			"type":"VEC3"
		},
		{
			"bufferView":21,
			"componentType":5126,
			"count":50,
			"type":"VEC4"
		},
		{
			"bufferView":22,
			"componentType":5126,
			"count":2,
			"type":"VEC3"
		},
		{
			"bufferView":23,
			"componentType":5126,
			"count":2,
			"type":"VEC3"
		},
		{
			"bufferView":24,
			"componentType":5126,
			"count":50,
			"type":"VEC4"
		},
		{
			"bufferView":25,
			"componentType":5126,
			"count":2,
			"type":"VEC3"
		},
		{
			"bufferView":26,
			"componentType":5126,
			"count":2,
			"type":"VEC3"
		},
		{
			"bufferView":27,
			"componentType":5126,
			"count":50,
			"type":"VEC4"
		},
		{
			"bufferView":28,
			"componentType":5126,
			"count":2,
			"type":"VEC3"
		},
		{
			"bufferView":29,
			"componentType":5126,
			"count":2,
			"type":"VEC3"
		},
		{
			"bufferView":30,
			"componentType":5126,
			"count":50,
			"type":"VEC4"
		},
		{
			"bufferView":31,
			"componentType":5126,
			"count":2,
			"type":"VEC3"
		},
		{
			"bufferView":32,
			"componentType":5126,
			"count":2,
			"type":"VEC3"
		},
		{
			"bufferView":33,
			"componentType":5126,
			"count":50,
			"type":"VEC4"
		},
		{
			"bufferView":34,
			"componentType":5126,
			"count":2,
			"type":"VEC3"
		},
		{
			"bufferView":35,
			"componentType":5126,
			"count":2,
			"type":"VEC3"
		},
		{
			"bufferView":36,
			"componentType":5126,
			"count":50,
			"type":"VEC4"
		},
		{
			"bufferView":37,
			"componentType":5126,
			"count":2,
			"type":"VEC3"
		},
		{
			"bufferView":38,
			"componentType":5126,
			"count":2,
			"type":"VEC3"
		},
		{
			"bufferView":39,
			"componentType":5126,
			"count":50,
			"type":"VEC4"
		},
		{
			"bufferView":40,
			"componentType":5126,
			"count":2,
			"type":"VEC3"
		},
		{
			"bufferView":41,
			"componentType":5126,
			"count":2,
			"type":"VEC3"
		},
		{
			"bufferView":42,
			"componentType":5126,
			"count":50,
			"type":"VEC4"
		},
		{
			"bufferView":43,
			"componentType":5126,
			"count":2,
			"type":"VEC3"
		},
		{
			"bufferView":44,
			"componentType":5126,
			"count":2,
			"type":"VEC3"
		},
		{
			"bufferView":45,
			"componentType":5126,
			"count":50,
			"type":"VEC4"
		},
		{
			"bufferView":46,
			"componentType":5126,
			"count":2,
			"type":"VEC3"
		},
		{
			"bufferView":47,
			"componentType":5126,
			"count":2,
			"type":"VEC3"
		},
		{
			"bufferView":48,
			"componentType":5126,
			"count":50,
			"type":"VEC4"
		},
		{
			"bufferView":49,
			"componentType":5126,
			"count":2,
			"type":"VEC3"
		},
		{
			"bufferView":50,
			"componentType":5126,
			"count":2,
			"type":"VEC3"
		},
		{
			"bufferView":51,
			"componentType":5126,
			"count":2,
			"type":"VEC4"
		},
		{
			"bufferView":52,
			"componentType":5126,
			"count":2,
			"type":"VEC3"
		},
		{
			"bufferView":53,
			"componentType":5126,
			"count":1,
			"max":[
				0.041666666666666664
			],
			"min":[
				0.041666666666666664
			],
			"type":"SCALAR"
		},
		{
			"bufferView":54,
			"componentType":5126,
			"count":1,
			"type":"VEC3"
		},
		{
			"bufferView":55,
			"componentType":5126,
			"count":1,
			"type":"VEC4"
		},
		{
			"bufferView":56,
			"componentType":5126,
			"count":1,
			"type":"VEC3"
		}
	],
	"bufferViews":[
		{
			"buffer":0,
			"byteLength":44496,
			"byteOffset":0,
			"target":34962
		},
		{
			"buffer":0,
			"byteLength":44496,
			"byteOffset":44496,
			"target":34962
		},
		{
			"buffer":0,
			"byteLength":29664,
			"byteOffset":88992,
			"target":34962
		},
		{
			"buffer":0,
			"byteLength":44496,
			"byteOffset":118656,
			"target":34962
		},
		{
			"buffer":0,
			"byteLength":44496,
			"byteOffset":163152,
			"target":34962
		},
		{
			"buffer":0,
			"byteLength":14832,
			"byteOffset":207648,
			"target":34962
		},
		{
			"buffer":0,
			"byteLength":59328,
			"byteOffset":222480,
			"target":34962
		},
		{
			"buffer":0,
			"byteLength":35694,
			"byteOffset":281808,
			"target":34963
		},
		{
			"buffer":0,
			"byteLength":832,
			"byteOffset":317504
		},
		{
			"buffer":0,
			"byteLength":200,
			"byteOffset":318336
		},
		{
			"buffer":0,
			"byteLength":600,
			"byteOffset":318536
		},
		{
			"buffer":0,
			"byteLength":800,
			"byteOffset":319136
		},
		{
			"buffer":0,
			"byteLength":8,
			"byteOffset":319936
		},
		{
			"buffer":0,
			"byteLength":24,
			"byteOffset":319944
		},
		{
			"buffer":0,
			"byteLength":24,
			"byteOffset":319968
		},
		{
			"buffer":0,
			"byteLength":800,
			"byteOffset":319992
		},
		{
			"buffer":0,
			"byteLength":24,
			"byteOffset":320792
		},
		{
			"buffer":0,
			"byteLength":24,
			"byteOffset":320816
		},
		{
			"buffer":0,
			"byteLength":800,
			"byteOffset":320840
		},
		{
			"buffer":0,
			"byteLength":24,
			"byteOffset":321640
		},
		{
			"buffer":0,
			"byteLength":24,
			"byteOffset":321664
		},
		{
			"buffer":0,
			"byteLength":800,
			"byteOffset":321688
		},
		{
			"buffer":0,
			"byteLength":24,
			"byteOffset":322488
		},
		{
			"buffer":0,
			"byteLength":24,
			"byteOffset":322512
		},
		{
			"buffer":0,
			"byteLength":800,
			"byteOffset":322536
		},
		{
			"buffer":0,
			"byteLength":24,
			"byteOffset":323336
		},
		{
			"buffer":0,
			"byteLength":24,
			"byteOffset":323360
		},
		{
			"buffer":0,
			"byteLength":800,
			"byteOffset":323384
		},
		{
			"buffer":0,
			"byteLength":24,
			"byteOffset":324184
		},
		{
			"buffer":0,
			"byteLength":24,
			"byteOffset":324208
		},
		{
			"buffer":0,
			"byteLength":800,
			"byteOffset":324232
		},
		{
			"buffer":0,
			"byteLength":24,
			"byteOffset":325032
		},
		{
			"buffer":0,
			"byteLength":24,
			"byteOffset":325056
		},
		{
			"buffer":0,
			"byteLength":800,
			"byteOffset":325080
		},
		{
			"buffer":0,
			"byteLength":24,
			"byteOffset":325880
		},
		{
			"buffer":0,
			"byteLength":24,
			"byteOffset":325904
		},
		{
			"buffer":0,
			"byteLength":800,
			"byteOffset":325928
		},
		{
			"buffer":0,
			"byteLength":24,
			"byteOffset":326728
		},
		{
			"buffer":0,
			"byteLength":24,
			"byteOffset":326752
		},
		{
			"buffer":0,
			"byteLength":800,
			"byteOffset":326776
		},
		{
			"buffer":0,
			"byteLength":24,
			"byteOffset":327576
		},
		{
			"buffer":0,
			"byteLength":24,
			"byteOffset":327600
		},
		{
			"buffer":0,
			"byteLength":800,
			"byteOffset":327624
		},
		{
			"buffer":0,
			"byteLength":24,
			"byteOffset":328424
		},
		{
			"buffer":0,
			"byteLength":24,
			"byteOffset":328448
		},
		{
			"buffer":0,
			"byteLength":800,
			"byteOffset":328472
		},
		{
			"buffer":0,
			"byteLength":24,
			"byteOffset":329272
		},
		{
			"buffer":0,
			"byteLength":24,
			"byteOffset":329296
		},
		{
			"buffer":0,
			"byteLength":800,
			"byteOffset":329320
		},
		{
			"buffer":0,
			"byteLength":24,
			"byteOffset":330120
		},
		{
			"buffer":0,
			"byteLength":24,
			"byteOffset":330144
		},
		{
			"buffer":0,
			"byteLength":32,
			"byteOffset":330168
		},
		{
			"buffer":0,
			"byteLength":24,
			"byteOffset":330200
		},
		{
			"buffer":0,
			"byteLength":4,
			"byteOffset":330224
		},
		{
			"buffer":0,
			"byteLength":12,
			"byteOffset":330228
		},
		{
			"buffer":0,
			"byteLength":16,
			"byteOffset":330240
		},
		{
			"buffer":0,
			"byteLength":12,
			"byteOffset":330256
		}
	],
	"buffers":[
		{
			"byteLength":330268,
			"uri":"playerGoal.bin"
		}
	]
}
